Coordinates
version=1
nRows=29
nColumns=24
inDegrees=yes

Units are S.I. units (second, meters, Newtons, ...)
Angles are in degrees.

endheader
time	pelvis_tilt	pelvis_list	pelvis_rotation	pelvis_tx	pelvis_ty	pelvis_tz	hip_flexion_r	hip_adduction_r	hip_rotation_r	knee_angle_r	ankle_angle_r	subtalar_angle_r	mtp_angle_r	hip_flexion_l	hip_adduction_l	hip_rotation_l	knee_angle_l	ankle_angle_l	subtalar_angle_l	mtp_angle_l	lumbar_extension	lumbar_bending	lumbar_rotation
      0.92050000	     -7.76210175	      1.05873906	     -0.06813654	     -0.15489925	      1.04049310	      0.30530864	     -1.21875620	      0.66532591	     -0.45126999	    -13.54673051	     21.95178770	     -3.00660682	      0.85650410	     36.05153257	     -1.65155438	     -1.49318575	    -20.82661706	     10.00708509	      6.53337815	      3.76904123	     -4.62455241	      1.89366383	      4.41179380
      0.92466667	     -7.78590516	      0.96172156	     -0.12701451	     -0.14897380	      1.03905223	      0.30486665	     -1.45446799	      0.73816657	     -0.41457028	    -13.75751956	     22.18826908	     -2.97518567	      0.82523791	     36.09667581	     -1.70591750	     -1.40475816	    -20.47736923	     10.07963314	      6.52917474	      3.75817828	     -4.53985405	      1.97943585	      4.42628309
      0.92883333	     -7.79749559	      0.88644692	     -0.19590157	     -0.14302597	      1.03765553	      0.30435430	     -1.65274652	      0.76447413	     -0.52396635	    -14.07695229	     22.47963729	     -2.70567516	      0.71626367	     36.11191941	     -1.72581771	     -1.28986976	    -20.19022147	     10.11850044	      6.33626784	      3.71414194	     -4.46549407	      2.07725211	      4.47023421
      0.93300000	     -7.80993626	      0.79542816	     -0.26731223	     -0.13704195	      1.03626362	      0.30392630	     -1.86800906	      0.82678624	     -0.47178715	    -14.36446520	     22.69235072	     -2.67246216	      0.68999598	     36.13891424	     -1.77369974	     -1.21592840	    -20.01689637	     10.18414702	      6.30725519	      3.70171050	     -4.38638465	      2.15333593	      4.48098708
      0.93716667	     -7.80530939	      0.74470432	     -0.34238396	     -0.13100209	      1.03493110	      0.30342426	     -2.05788340	      0.81958587	     -0.58295374	    -14.75072373	     22.96193419	     -2.35697368	      0.60132166	     36.12271407	     -1.76880113	     -1.12608188	    -19.88853370	     10.20531186	      6.14140696	      3.65386014	     -4.31402736	      2.21166636	      4.52285969
      0.94133333	     -7.78988073	      0.66712214	     -0.42381088	     -0.12496609	      1.03362048	      0.30299846	     -2.26531683	      0.85862708	     -0.55171065	    -15.12545603	     23.15757872	     -2.28447339	      0.57076931	     36.11263931	     -1.80162432	     -1.06726972	    -19.88136081	     10.25108548	      6.07749093	      3.63408676	     -4.27058842	      2.26998232	      4.53387366
      0.94550000	     -7.79708964	      0.61997524	     -0.50714250	     -0.11886132	      1.03231394	      0.30251092	     -2.41069784	      0.84337845	     -0.63375113	    -15.58765927	     23.37694168	     -1.98375804	      0.51922177	     36.10323618	     -1.79259987	     -0.97703777	    -19.91610634	     10.25412440	      5.96421194	      3.59362520	     -4.17102893	      2.32040012	      4.57018643
      0.94966667	     -7.79680900	      0.56368904	     -0.59048051	     -0.11275685	      1.03103745	      0.30204835	     -2.55061538	      0.84231648	     -0.67300380	    -16.07930011	     23.54596443	     -1.77548436	      0.48050937	     36.09923585	     -1.79503510	     -0.89965633	    -20.05808080	     10.24773902	      5.87871653	      3.55329076	     -4.09601962	      2.35556237	      4.58708653
      0.95383333	     -7.76390104	      0.52888801	     -0.68123846	     -0.10661763	      1.02987446	      0.30159953	     -2.70899398	      0.81363214	     -0.70179503	    -16.60836266	     23.69763104	     -1.54971681	      0.46874420	     36.04621710	     -1.77760992	     -0.82389627	    -20.25309866	     10.22040382	      5.80275095	      3.52180681	     -4.05536652	      2.36736723	      4.60172234
      0.95800000	     -7.75583756	      0.47959536	     -0.76390559	     -0.10046365	      1.02868053	      0.30112348	     -2.81831940	      0.79659309	     -0.75000543	    -17.18636608	     23.80877168	     -1.32781692	      0.48206930	     36.03690818	     -1.76906690	     -0.74187225	    -20.55345433	     10.17902376	      5.73543225	      3.49490128	     -3.97306052	      2.39957124	      4.61158391
      0.96216667	     -7.72079857	      0.44271356	     -0.85595122	     -0.09431002	      1.02759813	      0.30067137	     -2.93439238	      0.76375661	     -0.76529724	    -17.80830843	     23.90335236	     -1.09221964	      0.51738823	     35.99166707	     -1.75119975	     -0.64847242	    -20.90821908	     10.11660124	      5.67454109	      3.47723296	     -3.93749729	      2.40741170	      4.61472829
      0.96633333	     -7.72391762	      0.39906165	     -0.94092350	     -0.08812641	      1.02647850	      0.30018568	     -2.97938891	      0.73028750	     -0.82385090	    -18.49554505	     23.94437329	     -0.83442959	      0.57973000	     35.99787600	     -1.73536436	     -0.54585902	    -21.34568219	     10.04074836	      5.62232938	      3.46312780	     -3.83636759	      2.42810663	      4.61586946
      0.97050000	     -7.68609111	      0.37373064	     -1.02916319	     -0.08194100	      1.02549307	      0.29969231	     -3.04248001	      0.66931238	     -0.88700353	    -19.23445520	     23.96155125	     -0.54830999	      0.66972053	     35.95755605	     -1.70184517	     -0.44475190	    -21.83320608	      9.94903852	      5.56156244	      3.45277470	     -3.79412079	      2.42863849	      4.60796410
      0.97466667	     -7.66720049	      0.34479168	     -1.11207764	     -0.07574619	      1.02452622	      0.29918252	     -3.05617208	      0.60814102	     -0.95393890	    -20.03243059	     23.92277348	     -0.25949897	      0.78594769	     35.94547538	     -1.66848456	     -0.32995039	    -22.38494359	      9.85432051	      5.49645033	      3.44601322	     -3.72083265	      2.42904946	      4.59515562
      0.97883333	     -7.64078036	      0.32711829	     -1.19278250	     -0.06954826	      1.02362675	      0.29865892	     -3.04568030	      0.52573255	     -1.04573573	    -20.89307707	     23.84677034	      0.05921066	      0.95111638	     35.92788213	     -1.62352687	     -0.20851585	    -22.98475997	      9.75962187	      5.43043319	      3.44091508	     -3.66301118	      2.40990060	      4.57280018
      0.98300000	     -7.60480130	      0.34951847	     -1.26747844	     -0.06331550	      1.02281285	      0.29810071	     -3.00496966	      0.38439393	     -1.20168905	    -21.83897478	     23.75260280	      0.41422987	      1.43090524	     35.88992163	     -1.53502323	     -0.09455817	    -23.60324007	      9.64011353	      5.32219728	      3.43078462	     -3.59718931	      2.33291484	      4.53208935
      0.98716667	     -7.57822394	      0.28757571	     -1.34719577	     -0.05716243	      1.02203235	      0.29754602	     -2.94022922	      0.34627431	     -1.23878886	    -22.79099065	     23.52196881	      0.70591880	      1.65197615	     35.90086536	     -1.53432111	      0.04914556	    -24.32509722	      9.60469930	      5.26361834	      3.42832161	     -3.55526085	      2.37892198	      4.51310819
      0.99133333	     -7.53521096	      0.29425853	     -1.42554512	     -0.05095676	      1.02136330	      0.29697381	     -2.84650590	      0.21197040	     -1.36583749	    -23.83035562	     23.18318336	      0.96030454	      5.93971922	     35.86772392	     -1.46538702	      0.17239381	    -25.02505483	      9.52286785	      5.12399329	      3.33691494	     -3.50726218	      2.33433209	      4.45875306
      0.99550000	     -7.49182731	      0.28110987	     -1.49818220	     -0.04477090	      1.02074101	      0.29638219	     -2.71972339	      0.09612356	     -1.48735513	    -24.93966406	     22.89024385	      1.30316986	      6.00602161	     35.85149117	     -1.42118426	      0.27143519	    -25.77989737	      9.51565136	      5.07547595	      3.33537169	     -3.46915753	      2.31430321	      4.42461897
      0.99966667	     -7.45775710	      0.28390830	     -1.57110919	     -0.03859030	      1.02018695	      0.29577632	     -2.54172389	     -0.04723274	     -1.62310717	    -26.11973900	     22.53991385	      1.66981614	      6.15917251	     35.83428402	     -1.36034806	      0.37720223	    -26.53104264	      9.50639137	      4.96865819	      3.32687684	     -3.42175751	      2.26874219	      4.37316836
      1.00383333	     -7.40933460	      0.28880009	     -1.63893186	     -0.03242076	      1.01971864	      0.29514594	     -2.34374923	     -0.20197930	     -1.77214870	    -27.36080639	     22.10908629	      2.03918971	      6.36306931	     35.79555170	     -1.29558789	      0.48094652	    -27.28159148	      9.53213454	      4.86578176	      3.31406443	     -3.38884305	      2.23195109	      4.31871419
      1.00800000	     -7.32273910	      0.30092811	     -1.68850313	     -0.02628222	      1.01939454	      0.29446396	     -2.15535469	     -0.37568784	     -1.94753755	    -28.64130558	     21.52238546	      2.34651978	      9.98143623	     35.69816047	     -1.20057903	      0.64922625	    -28.00596898	      9.59707695	      4.63397338	      3.01936828	     -3.42537094	      2.17702140	      4.24164073
      1.01216667	     -7.28327560	      0.32746126	     -1.77203561	     -0.02011717	      1.01906107	      0.29389396	     -1.87041280	     -0.56233456	     -2.06616006	    -30.00513794	     20.94010411	      2.65643569	     10.06449149	     35.64631545	     -1.14733798	      0.64127055	    -28.73452872	      9.66776902	      4.65485090	      3.01506250	     -3.37187078	      2.09747282	      4.19084063
      1.01633333	     -7.22390785	      0.35700373	     -1.82979886	     -0.01399260	      1.01881829	      0.29324783	     -1.56932402	     -0.76690231	     -2.23887500	    -31.43090354	     20.31140982	      3.01083128	     10.23693005	     35.55568498	     -1.06426717	      0.69693277	    -29.42803229	      9.77862017	      4.56909891	      3.00069968	     -3.35913957	      2.02187933	      4.12687554
      1.02050000	     -7.16375572	      0.40164148	     -1.88483631	     -0.00788808	      1.01864648	      0.29260086	     -1.22926867	     -0.99649860	     -2.42022291	    -32.91625571	     19.61688582	      3.35397697	     10.54946666	     35.44207292	     -0.96733509	      0.73912757	    -30.08077558	      9.90820965	      4.46835232	      2.97057374	     -3.34710743	      1.92543226	      4.04829357
      1.02466667	     -7.06083702	      0.46645502	     -1.93767234	     -0.00181259	      1.01865199	      0.29197339	     -0.90696667	     -1.24820528	     -2.57246793	    -34.41929490	     18.72182972	      3.52112188	     14.86919909	     35.24265965	     -0.84365428	      0.79993862	    -30.65683233	     10.07359364	      4.31621104	      2.48687480	     -3.40232621	      1.79137307	      3.94523471
      1.02883333	     -7.00116574	      0.50007621	     -1.98785629	      0.00422715	      1.01861643	      0.29136242	     -0.49907680	     -1.46772814	     -2.72804614	    -35.98817259	     17.85976493	      3.77954317	     14.93343221	     35.09602332	     -0.77178583	      0.78718712	    -31.24402201	     10.28298069	      4.32561133	      2.48319708	     -3.39789251	      1.70970054	      3.89420594
      1.03300000	     -6.93128952	      0.56925034	     -2.03246688	      0.01024252	      1.01866984	      0.29076194	     -0.06439953	     -1.73208252	     -2.89317340	    -37.60840779	     16.94990147	      3.99291417	     15.05366674	     34.90098348	     -0.65896480	      0.77768182	    -31.75476295	     10.49499285	      4.27076606	      2.47149631	     -3.40671451	      1.57554488	      3.81292424
      1.03716667	     -6.85642682	      0.65120304	     -2.07401808	      0.01622209	      1.01879871	      0.29017597	      0.39889533	     -2.01401582	     -3.05664645	    -39.26709861	     15.99183050	      4.17437528	     15.26499131	     34.67404927	     -0.53461252	      0.75597647	    -32.21020832	     10.72451906	      4.21033710	      2.44664269	     -3.42276274	      1.42096738	      3.71982433
